HIERARCHY
ROOT Hips
{
   OFFSET 0.00000 0.00000 0.00000
   CHANNELS 6 Xposition Yposition Zposition Zrotation Xrotation Yrotation
   JOINT RightUpLeg
   {
      OFFSET -8.945800 -8.667070 0.101652
      CHANNELS 3 Zrotation Xrotation Yrotation
      JOINT RightLeg
      {
         OFFSET 0.000000 -44.422697 1.372700
         CHANNELS 3 Zrotation Xrotation Yrotation
         JOINT RightFoot
         {
            OFFSET 0.253549 -42.092399 -1.460590
            CHANNELS 3 Zrotation Xrotation Yrotation
            JOINT RightToes
            {
               OFFSET 0.040000 -4.415090 8.499099
               CHANNELS 3 Zrotation Xrotation Yrotation
               End Site
               {
                  OFFSET -0.080000 -0.137448 9.779790
               }
            }
         }
      }
   }
   JOINT Spine
   {
      OFFSET 0.000000 11.890501 0.000000
      CHANNELS 3 Zrotation Xrotation Yrotation
      JOINT Spine1
      {
         OFFSET 0.000000 25.657401 0.127663
         CHANNELS 3 Zrotation Xrotation Yrotation
         JOINT HEad
         {
            OFFSET 0.000000 8.734161 0.011341
            CHANNELS 3 Zrotation Xrotation Yrotation
            End Site
            {
               OFFSET -0.290000 12.774200 2.513950
            }
         }
         JOINT LeftShoulder1
         {
            OFFSET 8.990000 -0.362252 -0.220000
            CHANNELS 3 Zrotation Xrotation Yrotation
            JOINT LeftArm
            {
               OFFSET 10.282700 -0.003380 0.322123
               CHANNELS 3 Zrotation Xrotation Yrotation
               JOINT LeftForeArm
               {
                  OFFSET 32.766900 0.099144 -1.424340
                  CHANNELS 3 Zrotation Xrotation Yrotation
                  JOINT LeftHand
                  {
                     OFFSET 27.564301 0.085362 1.022160
                     CHANNELS 3 Zrotation Xrotation Yrotation
                     End Site
                     {
                        OFFSET 16.744301 -0.600000 1.502910
                     }
                  }
               }
            }
         }
         JOINT RightShoulder
         {
            OFFSET -8.990000 -0.362252 -0.220000
            CHANNELS 3 Zrotation Xrotation Yrotation
            JOINT RightArm
            {
               OFFSET -10.282700 -0.003380 0.322123
               CHANNELS 3 Zrotation Xrotation Yrotation
               JOINT RightForeArm
               {
                  OFFSET -32.897098 0.099144 -1.424340
                  CHANNELS 3 Zrotation Xrotation Yrotation
                  JOINT RightHand
                  {
                     OFFSET -27.492101 0.085362 1.022160
                     CHANNELS 3 Zrotation Xrotation Yrotation
                     End Site
                     {
                        OFFSET -16.631201 -0.600000 1.502910
                     }
                  }
               }
            }
         }
      }
   }
   JOINT LeftUpLeg
   {
      OFFSET 8.945800 -8.667070 0.101652
      CHANNELS 3 Zrotation Xrotation Yrotation
      JOINT LeftLeg
      {
         OFFSET 0.000000 -44.422697 1.372700
         CHANNELS 3 Zrotation Xrotation Yrotation
         JOINT LeftFoot
         {
            OFFSET -0.253549 -42.092399 -1.460590
            CHANNELS 3 Zrotation Xrotation Yrotation
            JOINT LeftToes
            {
               OFFSET -0.040000 -4.415090 8.499099
               CHANNELS 3 Zrotation Xrotation Yrotation
               End Site
               {
                  OFFSET 0.080000 -0.047448 9.779790
               }
            }
         }
      }
   }
}
MOTION
Frames: 12
Frame Time: 0.016667
-395.933946 104.835118 -28.254015 12.445131 -7.885707 45.723434 -3.757637 0.267006 -42.199265 -9.386716 21.018760 -4.713483 -22.274664 8.793589 46.321875 8.274198 -4.324858 -18.743026 -12.789470 18.586142 110.368808 10.780327 -8.828632 -106.020122 -3.286915 18.956370 -6.368332 -23.709962 68.897634 14.065667 -114.542955 -23.100451 -169.386164 -44.969341 -3.348543 -40.130189 -119.947411 -52.558866 -95.814631 50.480316 121.994801 -18.430485 75.824724 42.130465 220.315415 29.024722 93.580654 34.568158 9.246126 0.760874 42.605897 14.347338 -10.613722 -124.326641 -11.150759 -24.768095 140.557930 15.314162 32.871119 4.692506 -60.552578 -23.415695 20.195671
-396.266016 104.969118 -27.890908 13.032530 -8.308486 46.549874 -3.365108 0.649082 -45.899739 -11.439090 20.721382 -2.103229 -22.293471 9.264389 46.590701 8.757718 -3.400455 -18.674857 -9.945532 15.368351 109.006759 14.970337 -8.467748 -108.309206 -5.160800 20.088182 -6.730014 -19.770553 58.836711 12.872661 -105.577007 -36.385654 -155.170300 -40.222769 -9.352172 -48.124570 -118.933742 -52.297481 -96.826025 56.242226 130.976800 -27.095251 71.416827 47.297694 231.410306 32.070935 100.161842 33.731886 7.407450 -0.944249 43.928799 13.878199 -9.593702 -127.237586 -11.012589 -24.096561 139.429583 11.444277 31.602186 6.257467 -59.974423 -24.770899 19.206868
-396.471170 105.150727 -27.532451 12.587631 -9.216714 48.184857 -2.256378 1.082719 -48.643842 -11.906218 21.237700 -1.768203 -22.771193 10.715243 46.564958 9.474753 -1.888717 -19.013426 -8.192941 11.588563 106.277825 19.927167 -9.183044 -112.221108 -6.879894 19.543741 -7.462313 -17.128279 49.808618 11.846745 -91.929954 -48.316044 -137.829106 -33.877892 -16.901658 -54.508113 -116.101167 -53.663943 -96.438200 62.359074 140.700381 -34.707832 66.402457 51.806080 240.567595 34.586456 107.215180 32.519859 5.508089 -1.340802 44.832559 13.863439 -9.494516 -129.617005 -11.279676 -22.683381 139.204911 7.757247 31.248105 8.171994 -59.949445 -25.080648 18.557786
-396.431192 105.417622 -27.203581 11.777331 -9.790595 49.636269 -1.936362 0.396851 -49.173616 -11.711890 22.677657 -2.720454 -22.435732 11.778314 46.790211 9.990054 -0.953702 -19.185199 -7.571579 10.260116 104.883941 23.807210 -9.736227 -115.564233 -8.429822 16.966458 -8.144358 -14.791239 43.264976 10.892490 -73.696737 -58.079728 -118.854321 -27.463501 -24.312168 -58.720448 -113.612943 -54.499818 -96.748434 66.991800 148.849807 -42.478562 60.734732 55.132566 248.922064 37.249676 115.207560 32.637116 2.600921 -3.980926 44.063955 14.666757 -9.887290 -131.188345 -11.114926 -22.304080 139.076571 4.316163 30.998684 10.020512 -59.962156 -25.085144 17.676750
-396.183580 105.732697 -26.869223 10.598723 -9.077094 50.859013 -1.709041 -0.610407 -47.790055 -10.880023 22.852824 -5.078198 -22.145732 12.262584 46.898340 10.357255 -0.446402 -19.262935 -6.955374 10.581694 104.403191 26.116355 -11.567577 -118.679618 -9.975069 13.279371 -8.748548 -13.260153 39.367308 9.911934 -52.759940 -64.874694 -98.418217 -21.220704 -31.552028 -60.603729 -111.533437 -55.373126 -96.740784 71.411281 151.765533 -49.968872 53.358097 57.915524 257.480428 40.243437 122.644284 33.393317 0.063096 -5.446000 43.934338 15.264870 -11.249752 -132.262474 -10.497189 -22.528151 138.783187 1.030070 30.607874 11.561967 -59.912323 -24.846273 16.395722
-395.910257 105.993765 -26.574530 9.799972 -8.461474 52.480732 -1.658880 -1.120416 -45.153752 -9.245139 23.042130 -8.753184 -22.123761 12.768929 46.850088 10.662027 -0.102153 -19.344993 -7.113695 11.907130 104.654952 27.912345 -12.881219 -121.807654 -11.498869 8.911562 -9.265184 -11.919152 38.340280 9.919146 -31.149546 -70.119050 -76.960318 -15.535057 -37.939583 -59.755932 -109.994849 -56.021994 -96.418413 75.405268 152.281362 -57.284107 45.980557 59.498078 266.065538 44.936972 130.743317 36.970912 -3.239217 -8.073789 45.941314 15.659792 -12.344773 -132.845240 -9.681096 -22.999532 138.725131 -1.966877 30.101146 13.253494 -59.897549 -24.517580 15.238447
-395.667642 106.177243 -26.331899 9.998541 -8.571935 52.781486 -1.845832 -0.878111 -42.337775 -8.011274 23.817211 -12.179658 -21.979052 13.243820 46.798342 10.906739 0.081317 -19.433142 -5.819740 11.452229 105.651067 30.669663 -14.468789 -124.206935 -12.875848 4.081646 -9.729407 -11.418386 39.521319 7.559179 -8.490822 -72.111703 -54.631456 -10.908752 -43.637542 -57.199119 -108.612275 -56.724168 -96.232072 81.203525 152.188540 -62.826491 39.599258 62.803596 273.184590 48.653131 137.828368 40.129339 -6.553621 -10.549060 46.179834 15.825437 -11.444274 -133.657991 -9.062504 -22.641759 138.881105 -4.614487 29.589578 15.094178 -59.861656 -24.072343 14.086685
-395.416559 106.266192 -26.138205 10.689267 -9.279333 53.407626 -1.926898 -0.019523 -39.699829 -6.752150 24.864059 -15.389019 -21.854459 13.830685 46.713542 11.152262 0.294233 -19.573492 -4.785730 10.616592 107.642005 33.035716 -16.455200 -125.707337 -14.465193 -0.353029 -10.036697 -10.688749 42.349990 4.011163 13.959337 -72.841324 -32.324799 -6.831596 -48.074614 -53.675404 -107.596305 -57.037991 -96.343145 87.883969 151.243092 -68.145774 33.752029 67.163019 279.290670 53.387135 143.454354 41.615970 -10.080019 -13.634549 45.871431 16.187784 -10.447583 -133.889712 -8.986165 -22.511342 139.561050 -7.287313 29.206364 17.120264 -60.080250 -23.009823 13.515232
-395.173067 106.307724 -25.965008 11.326545 -9.516062 53.742083 -2.075122 0.531750 -37.242949 -5.665186 25.480900 -18.381146 -21.654037 14.231386 46.497363 11.351784 0.401528 -19.776642 -4.485843 12.003684 109.543865 35.043829 -19.460560 -127.155173 -16.047699 -4.127523 -10.251578 -9.477672 46.999590 0.468730 34.105494 -74.257168 -9.792998 -3.296535 -51.497683 -51.920796 -106.583900 -57.031147 -97.220305 95.858064 149.506735 -73.851393 28.337430 71.786477 284.007517 58.807239 148.400572 44.583647 -13.966659 -16.965375 46.435338 16.600657 -9.889988 -133.856886 -8.973039 -22.854983 140.138994 -10.020640 28.694393 18.843852 -60.317571 -21.325577 12.939917
-394.949449 106.321648 -25.809989 12.351227 -9.600912 54.168209 -2.568166 1.304987 -35.103638 -4.680933 26.004533 -21.176761 -21.436397 14.536492 46.122143 11.526207 0.414749 -20.074310 -4.171622 13.251475 112.156439 36.494097 -22.621969 -127.841935 -17.367204 -7.034335 -10.417108 -7.195895 52.496332 -3.213200 53.852948 -74.885217 11.229295 -0.262919 -54.114178 -49.942989 -105.143659 -56.754767 -99.569541 104.491936 147.112890 -80.440436 23.441071 76.277599 288.136366 63.275508 152.187324 46.394699 -17.592626 -20.318713 45.228587 17.391301 -9.779668 -133.594962 -9.421000 -24.474632 140.613009 -13.594699 28.956976 19.776618 -60.829876 -18.435314 12.457208
-394.773630 106.301316 -25.693833 12.862932 -10.404291 55.801266 -2.121952 2.281364 -33.318926 -3.360896 26.576258 -23.674843 -21.231792 14.839307 45.730999 11.686066 0.379350 -20.291679 -5.392110 14.230826 115.646468 38.110553 -24.510443 -128.002021 -19.048238 -9.258545 -10.405561 -3.949352 58.433026 -6.878265 73.443590 -75.114254 30.546228 2.095544 -55.647651 -49.042800 -103.481983 -55.888644 -103.625137 113.749410 144.653516 -86.323694 19.380996 81.266793 292.178417 68.176612 154.793643 48.521394 -21.305383 -23.440774 43.883761 18.483808 -9.477202 -133.847201 -9.348675 -25.071220 140.897882 -15.970628 27.891665 21.210546 -60.399131 -17.638776 11.425021
-394.645380 106.367977 -25.407428 12.614906 -9.564973 55.047554 -3.033479 1.898519 -31.760895 -1.911059 26.723822 -25.711863 -20.736792 14.192470 45.332748 11.654414 -0.249796 -20.360893 -3.458005 15.541462 117.754879 37.531022 -27.581144 -129.732599 -18.265823 -11.031283 -10.938357 -1.804235 62.863839 -10.772422 90.174377 -72.835320 47.942880 1.181176 -56.227261 -47.742653 -103.524952 -56.298780 -105.746450 123.355020 143.082641 -94.129911 14.497946 86.386689 294.487677 71.996635 157.075008 49.670512 -24.059215 -26.139959 40.760687 18.223689 -9.521511 -133.917251 -8.794284 -25.049253 141.301697 -17.272865 25.774574 23.234278 -59.235922 -18.757376 10.056012
